<mxfile host="app.diagrams.net" modified="2024-02-28T11:08:40.680Z" agent="Mozilla/5.0 (Windows NT 10.0; Win64; x64; rv:123.0) Gecko/20100101 Firefox/123.0" etag="MzzSuGMDyPDWJLMtzZfu" version="23.1.2" type="github">
  <diagram name="Страница — 1" id="yZ59AJVgDMNRJqu36cLB">
    <mxGraphModel dx="1434" dy="782" grid="1" gridSize="10" guides="1" tooltips="1" connect="1" arrows="1" fold="1" page="1" pageScale="1" pageWidth="827" pageHeight="1169" math="0" shadow="0">
      <root>
        <mxCell id="0" />
        <mxCell id="1" parent="0" />
        <mxCell id="f7NL1tnaBPzbx-Mfci6v-1" value="Чтение данных" style="rounded=0;whiteSpace=wrap;html=1;" vertex="1" parent="1">
          <mxGeometry x="80" y="320" width="80" height="40" as="geometry" />
        </mxCell>
        <mxCell id="f7NL1tnaBPzbx-Mfci6v-2" value="Создание массива" style="rounded=0;whiteSpace=wrap;html=1;" vertex="1" parent="1">
          <mxGeometry x="200" y="320" width="80" height="40" as="geometry" />
        </mxCell>
        <mxCell id="f7NL1tnaBPzbx-Mfci6v-3" value="Выполнение алгоритма Форда-Фалкерсона" style="rounded=0;whiteSpace=wrap;html=1;" vertex="1" parent="1">
          <mxGeometry x="320" y="320" width="80" height="80" as="geometry" />
        </mxCell>
        <mxCell id="f7NL1tnaBPzbx-Mfci6v-4" value="Создание таблицы" style="rounded=0;whiteSpace=wrap;html=1;" vertex="1" parent="1">
          <mxGeometry x="440" y="320" width="80" height="40" as="geometry" />
        </mxCell>
        <mxCell id="f7NL1tnaBPzbx-Mfci6v-5" value="Программный комплекс" style="rounded=0;whiteSpace=wrap;html=1;" vertex="1" parent="1">
          <mxGeometry x="300" y="210" width="120" height="60" as="geometry" />
        </mxCell>
        <mxCell id="f7NL1tnaBPzbx-Mfci6v-7" value="Изменение массива" style="rounded=0;whiteSpace=wrap;html=1;" vertex="1" parent="1">
          <mxGeometry x="320" y="420" width="80" height="40" as="geometry" />
        </mxCell>
        <mxCell id="f7NL1tnaBPzbx-Mfci6v-8" value="Вывод результатов" style="rounded=0;whiteSpace=wrap;html=1;" vertex="1" parent="1">
          <mxGeometry x="560" y="320" width="80" height="40" as="geometry" />
        </mxCell>
        <mxCell id="f7NL1tnaBPzbx-Mfci6v-9" value="" style="endArrow=none;html=1;rounded=0;exitX=0.5;exitY=1;exitDx=0;exitDy=0;" edge="1" parent="1" source="f7NL1tnaBPzbx-Mfci6v-5">
          <mxGeometry width="50" height="50" relative="1" as="geometry">
            <mxPoint x="460" y="230" as="sourcePoint" />
            <mxPoint x="360" y="300" as="targetPoint" />
          </mxGeometry>
        </mxCell>
        <mxCell id="f7NL1tnaBPzbx-Mfci6v-10" value="" style="endArrow=none;html=1;rounded=0;" edge="1" parent="1">
          <mxGeometry width="50" height="50" relative="1" as="geometry">
            <mxPoint x="600" y="300" as="sourcePoint" />
            <mxPoint x="120" y="300" as="targetPoint" />
          </mxGeometry>
        </mxCell>
        <mxCell id="f7NL1tnaBPzbx-Mfci6v-11" value="" style="endArrow=none;html=1;rounded=0;entryX=0.5;entryY=0;entryDx=0;entryDy=0;" edge="1" parent="1" target="f7NL1tnaBPzbx-Mfci6v-1">
          <mxGeometry width="50" height="50" relative="1" as="geometry">
            <mxPoint x="120" y="300" as="sourcePoint" />
            <mxPoint x="200" y="470" as="targetPoint" />
          </mxGeometry>
        </mxCell>
        <mxCell id="f7NL1tnaBPzbx-Mfci6v-12" value="" style="endArrow=none;html=1;rounded=0;entryX=0.5;entryY=0;entryDx=0;entryDy=0;" edge="1" parent="1" target="f7NL1tnaBPzbx-Mfci6v-2">
          <mxGeometry width="50" height="50" relative="1" as="geometry">
            <mxPoint x="240" y="300" as="sourcePoint" />
            <mxPoint x="240" y="440" as="targetPoint" />
          </mxGeometry>
        </mxCell>
        <mxCell id="f7NL1tnaBPzbx-Mfci6v-13" value="" style="endArrow=none;html=1;rounded=0;entryX=0.5;entryY=0;entryDx=0;entryDy=0;" edge="1" parent="1" target="f7NL1tnaBPzbx-Mfci6v-3">
          <mxGeometry width="50" height="50" relative="1" as="geometry">
            <mxPoint x="360" y="300" as="sourcePoint" />
            <mxPoint x="260" y="420" as="targetPoint" />
          </mxGeometry>
        </mxCell>
        <mxCell id="f7NL1tnaBPzbx-Mfci6v-14" value="" style="endArrow=none;html=1;rounded=0;entryX=0.5;entryY=1;entryDx=0;entryDy=0;exitX=0.5;exitY=0;exitDx=0;exitDy=0;" edge="1" parent="1" source="f7NL1tnaBPzbx-Mfci6v-7" target="f7NL1tnaBPzbx-Mfci6v-3">
          <mxGeometry width="50" height="50" relative="1" as="geometry">
            <mxPoint x="210" y="500" as="sourcePoint" />
            <mxPoint x="260" y="450" as="targetPoint" />
          </mxGeometry>
        </mxCell>
        <mxCell id="f7NL1tnaBPzbx-Mfci6v-15" value="" style="endArrow=none;html=1;rounded=0;exitX=0.5;exitY=0;exitDx=0;exitDy=0;" edge="1" parent="1" source="f7NL1tnaBPzbx-Mfci6v-8">
          <mxGeometry width="50" height="50" relative="1" as="geometry">
            <mxPoint x="530" y="480" as="sourcePoint" />
            <mxPoint x="600" y="300" as="targetPoint" />
          </mxGeometry>
        </mxCell>
        <mxCell id="f7NL1tnaBPzbx-Mfci6v-16" value="" style="endArrow=none;html=1;rounded=0;entryX=0.5;entryY=0;entryDx=0;entryDy=0;" edge="1" parent="1" target="f7NL1tnaBPzbx-Mfci6v-4">
          <mxGeometry width="50" height="50" relative="1" as="geometry">
            <mxPoint x="480" y="300" as="sourcePoint" />
            <mxPoint x="490" y="410" as="targetPoint" />
          </mxGeometry>
        </mxCell>
        <mxCell id="f7NL1tnaBPzbx-Mfci6v-23" style="rounded=0;orthogonalLoop=1;jettySize=auto;html=1;exitX=1;exitY=1;exitDx=0;exitDy=0;entryX=0;entryY=0.5;entryDx=0;entryDy=0;" edge="1" parent="1" source="f7NL1tnaBPzbx-Mfci6v-17" target="f7NL1tnaBPzbx-Mfci6v-18">
          <mxGeometry relative="1" as="geometry" />
        </mxCell>
        <mxCell id="f7NL1tnaBPzbx-Mfci6v-28" value="30" style="edgeLabel;html=1;align=center;verticalAlign=middle;resizable=0;points=[];" vertex="1" connectable="0" parent="f7NL1tnaBPzbx-Mfci6v-23">
          <mxGeometry x="0.1717" y="1" relative="1" as="geometry">
            <mxPoint as="offset" />
          </mxGeometry>
        </mxCell>
        <mxCell id="f7NL1tnaBPzbx-Mfci6v-24" style="edgeStyle=orthogonalEdgeStyle;rounded=0;orthogonalLoop=1;jettySize=auto;html=1;exitX=1;exitY=0.5;exitDx=0;exitDy=0;" edge="1" parent="1" source="f7NL1tnaBPzbx-Mfci6v-17" target="f7NL1tnaBPzbx-Mfci6v-19">
          <mxGeometry relative="1" as="geometry" />
        </mxCell>
        <mxCell id="f7NL1tnaBPzbx-Mfci6v-27" value="20" style="edgeLabel;html=1;align=center;verticalAlign=middle;resizable=0;points=[];" vertex="1" connectable="0" parent="f7NL1tnaBPzbx-Mfci6v-24">
          <mxGeometry x="-0.2" y="3" relative="1" as="geometry">
            <mxPoint as="offset" />
          </mxGeometry>
        </mxCell>
        <mxCell id="f7NL1tnaBPzbx-Mfci6v-25" style="rounded=0;orthogonalLoop=1;jettySize=auto;html=1;exitX=1;exitY=0;exitDx=0;exitDy=0;" edge="1" parent="1" source="f7NL1tnaBPzbx-Mfci6v-17" target="f7NL1tnaBPzbx-Mfci6v-20">
          <mxGeometry relative="1" as="geometry" />
        </mxCell>
        <mxCell id="f7NL1tnaBPzbx-Mfci6v-26" value="20" style="edgeLabel;html=1;align=center;verticalAlign=middle;resizable=0;points=[];" vertex="1" connectable="0" parent="f7NL1tnaBPzbx-Mfci6v-25">
          <mxGeometry x="0.0818" y="2" relative="1" as="geometry">
            <mxPoint as="offset" />
          </mxGeometry>
        </mxCell>
        <mxCell id="f7NL1tnaBPzbx-Mfci6v-17" value="1" style="ellipse;whiteSpace=wrap;html=1;aspect=fixed;fillColor=#d5e8d4;strokeColor=#82b366;" vertex="1" parent="1">
          <mxGeometry x="120" y="560" width="40" height="40" as="geometry" />
        </mxCell>
        <mxCell id="f7NL1tnaBPzbx-Mfci6v-32" style="rounded=0;orthogonalLoop=1;jettySize=auto;html=1;entryX=0;entryY=0.5;entryDx=0;entryDy=0;" edge="1" parent="1" source="f7NL1tnaBPzbx-Mfci6v-18" target="f7NL1tnaBPzbx-Mfci6v-49">
          <mxGeometry relative="1" as="geometry" />
        </mxCell>
        <mxCell id="f7NL1tnaBPzbx-Mfci6v-35" value="30" style="edgeLabel;html=1;align=center;verticalAlign=middle;resizable=0;points=[];" vertex="1" connectable="0" parent="f7NL1tnaBPzbx-Mfci6v-32">
          <mxGeometry x="0.0475" y="-2" relative="1" as="geometry">
            <mxPoint y="1" as="offset" />
          </mxGeometry>
        </mxCell>
        <mxCell id="f7NL1tnaBPzbx-Mfci6v-18" value="4" style="ellipse;whiteSpace=wrap;html=1;aspect=fixed;" vertex="1" parent="1">
          <mxGeometry x="240" y="640" width="40" height="40" as="geometry" />
        </mxCell>
        <mxCell id="f7NL1tnaBPzbx-Mfci6v-31" style="edgeStyle=orthogonalEdgeStyle;rounded=0;orthogonalLoop=1;jettySize=auto;html=1;exitX=1;exitY=0.5;exitDx=0;exitDy=0;" edge="1" parent="1" source="f7NL1tnaBPzbx-Mfci6v-19" target="f7NL1tnaBPzbx-Mfci6v-21">
          <mxGeometry relative="1" as="geometry" />
        </mxCell>
        <mxCell id="f7NL1tnaBPzbx-Mfci6v-34" value="15" style="edgeLabel;html=1;align=center;verticalAlign=middle;resizable=0;points=[];" vertex="1" connectable="0" parent="f7NL1tnaBPzbx-Mfci6v-31">
          <mxGeometry x="-0.325" y="2" relative="1" as="geometry">
            <mxPoint as="offset" />
          </mxGeometry>
        </mxCell>
        <mxCell id="f7NL1tnaBPzbx-Mfci6v-46" style="rounded=0;orthogonalLoop=1;jettySize=auto;html=1;exitX=1;exitY=0;exitDx=0;exitDy=0;" edge="1" parent="1" source="f7NL1tnaBPzbx-Mfci6v-19" target="f7NL1tnaBPzbx-Mfci6v-39">
          <mxGeometry relative="1" as="geometry" />
        </mxCell>
        <mxCell id="f7NL1tnaBPzbx-Mfci6v-47" value="20" style="edgeLabel;html=1;align=center;verticalAlign=middle;resizable=0;points=[];" vertex="1" connectable="0" parent="f7NL1tnaBPzbx-Mfci6v-46">
          <mxGeometry x="0.3287" y="1" relative="1" as="geometry">
            <mxPoint as="offset" />
          </mxGeometry>
        </mxCell>
        <mxCell id="f7NL1tnaBPzbx-Mfci6v-53" style="edgeStyle=orthogonalEdgeStyle;rounded=0;orthogonalLoop=1;jettySize=auto;html=1;exitX=0.5;exitY=0;exitDx=0;exitDy=0;" edge="1" parent="1" source="f7NL1tnaBPzbx-Mfci6v-19" target="f7NL1tnaBPzbx-Mfci6v-20">
          <mxGeometry relative="1" as="geometry" />
        </mxCell>
        <mxCell id="f7NL1tnaBPzbx-Mfci6v-55" value="30" style="edgeLabel;html=1;align=center;verticalAlign=middle;resizable=0;points=[];" vertex="1" connectable="0" parent="f7NL1tnaBPzbx-Mfci6v-53">
          <mxGeometry x="0.1" y="-1" relative="1" as="geometry">
            <mxPoint as="offset" />
          </mxGeometry>
        </mxCell>
        <mxCell id="f7NL1tnaBPzbx-Mfci6v-19" value="3" style="ellipse;whiteSpace=wrap;html=1;aspect=fixed;" vertex="1" parent="1">
          <mxGeometry x="240" y="560" width="40" height="40" as="geometry" />
        </mxCell>
        <mxCell id="f7NL1tnaBPzbx-Mfci6v-20" value="2" style="ellipse;whiteSpace=wrap;html=1;aspect=fixed;" vertex="1" parent="1">
          <mxGeometry x="240" y="480" width="40" height="40" as="geometry" />
        </mxCell>
        <mxCell id="f7NL1tnaBPzbx-Mfci6v-21" value="7" style="ellipse;whiteSpace=wrap;html=1;aspect=fixed;fillColor=#dae8fc;strokeColor=#6c8ebf;" vertex="1" parent="1">
          <mxGeometry x="450" y="560" width="40" height="40" as="geometry" />
        </mxCell>
        <mxCell id="f7NL1tnaBPzbx-Mfci6v-40" style="rounded=0;orthogonalLoop=1;jettySize=auto;html=1;" edge="1" parent="1" source="f7NL1tnaBPzbx-Mfci6v-39" target="f7NL1tnaBPzbx-Mfci6v-21">
          <mxGeometry relative="1" as="geometry" />
        </mxCell>
        <mxCell id="f7NL1tnaBPzbx-Mfci6v-45" value="15" style="edgeLabel;html=1;align=center;verticalAlign=middle;resizable=0;points=[];" vertex="1" connectable="0" parent="f7NL1tnaBPzbx-Mfci6v-40">
          <mxGeometry x="-0.1919" relative="1" as="geometry">
            <mxPoint y="-1" as="offset" />
          </mxGeometry>
        </mxCell>
        <mxCell id="f7NL1tnaBPzbx-Mfci6v-52" value="10" style="edgeStyle=orthogonalEdgeStyle;rounded=0;orthogonalLoop=1;jettySize=auto;html=1;exitX=0;exitY=0.5;exitDx=0;exitDy=0;" edge="1" parent="1" source="f7NL1tnaBPzbx-Mfci6v-39" target="f7NL1tnaBPzbx-Mfci6v-20">
          <mxGeometry relative="1" as="geometry">
            <Array as="points">
              <mxPoint x="300" y="500" />
              <mxPoint x="300" y="500" />
            </Array>
          </mxGeometry>
        </mxCell>
        <mxCell id="f7NL1tnaBPzbx-Mfci6v-39" value="5" style="ellipse;whiteSpace=wrap;html=1;aspect=fixed;" vertex="1" parent="1">
          <mxGeometry x="320" y="480" width="40" height="40" as="geometry" />
        </mxCell>
        <mxCell id="f7NL1tnaBPzbx-Mfci6v-50" value="5" style="rounded=0;orthogonalLoop=1;jettySize=auto;html=1;exitX=0;exitY=0;exitDx=0;exitDy=0;" edge="1" parent="1" source="f7NL1tnaBPzbx-Mfci6v-49" target="f7NL1tnaBPzbx-Mfci6v-19">
          <mxGeometry relative="1" as="geometry" />
        </mxCell>
        <mxCell id="f7NL1tnaBPzbx-Mfci6v-51" style="rounded=0;orthogonalLoop=1;jettySize=auto;html=1;" edge="1" parent="1" source="f7NL1tnaBPzbx-Mfci6v-49" target="f7NL1tnaBPzbx-Mfci6v-21">
          <mxGeometry relative="1" as="geometry" />
        </mxCell>
        <mxCell id="f7NL1tnaBPzbx-Mfci6v-54" value="25" style="edgeLabel;html=1;align=center;verticalAlign=middle;resizable=0;points=[];" vertex="1" connectable="0" parent="f7NL1tnaBPzbx-Mfci6v-51">
          <mxGeometry x="0.1093" y="-1" relative="1" as="geometry">
            <mxPoint x="1" as="offset" />
          </mxGeometry>
        </mxCell>
        <mxCell id="f7NL1tnaBPzbx-Mfci6v-49" value="6" style="ellipse;whiteSpace=wrap;html=1;aspect=fixed;" vertex="1" parent="1">
          <mxGeometry x="320" y="640" width="40" height="40" as="geometry" />
        </mxCell>
        <mxCell id="f7NL1tnaBPzbx-Mfci6v-57" style="rounded=0;orthogonalLoop=1;jettySize=auto;html=1;exitX=1;exitY=1;exitDx=0;exitDy=0;entryX=0;entryY=0.5;entryDx=0;entryDy=0;" edge="1" parent="1" source="f7NL1tnaBPzbx-Mfci6v-63" target="f7NL1tnaBPzbx-Mfci6v-66">
          <mxGeometry relative="1" as="geometry" />
        </mxCell>
        <mxCell id="f7NL1tnaBPzbx-Mfci6v-58" value="30" style="edgeLabel;html=1;align=center;verticalAlign=middle;resizable=0;points=[];" vertex="1" connectable="0" parent="f7NL1tnaBPzbx-Mfci6v-57">
          <mxGeometry x="0.1717" y="1" relative="1" as="geometry">
            <mxPoint as="offset" />
          </mxGeometry>
        </mxCell>
        <mxCell id="f7NL1tnaBPzbx-Mfci6v-59" style="edgeStyle=orthogonalEdgeStyle;rounded=0;orthogonalLoop=1;jettySize=auto;html=1;exitX=1;exitY=0.5;exitDx=0;exitDy=0;" edge="1" parent="1" source="f7NL1tnaBPzbx-Mfci6v-63" target="f7NL1tnaBPzbx-Mfci6v-73">
          <mxGeometry relative="1" as="geometry" />
        </mxCell>
        <mxCell id="f7NL1tnaBPzbx-Mfci6v-60" value="20" style="edgeLabel;html=1;align=center;verticalAlign=middle;resizable=0;points=[];" vertex="1" connectable="0" parent="f7NL1tnaBPzbx-Mfci6v-59">
          <mxGeometry x="-0.2" y="3" relative="1" as="geometry">
            <mxPoint as="offset" />
          </mxGeometry>
        </mxCell>
        <mxCell id="f7NL1tnaBPzbx-Mfci6v-63" value="1" style="ellipse;whiteSpace=wrap;html=1;aspect=fixed;fillColor=#d5e8d4;strokeColor=#82b366;" vertex="1" parent="1">
          <mxGeometry x="110" y="780" width="40" height="40" as="geometry" />
        </mxCell>
        <mxCell id="f7NL1tnaBPzbx-Mfci6v-64" style="rounded=0;orthogonalLoop=1;jettySize=auto;html=1;entryX=0;entryY=0.5;entryDx=0;entryDy=0;" edge="1" parent="1" source="f7NL1tnaBPzbx-Mfci6v-66" target="f7NL1tnaBPzbx-Mfci6v-83">
          <mxGeometry relative="1" as="geometry" />
        </mxCell>
        <mxCell id="f7NL1tnaBPzbx-Mfci6v-65" value="30" style="edgeLabel;html=1;align=center;verticalAlign=middle;resizable=0;points=[];" vertex="1" connectable="0" parent="f7NL1tnaBPzbx-Mfci6v-64">
          <mxGeometry x="0.0475" y="-2" relative="1" as="geometry">
            <mxPoint y="1" as="offset" />
          </mxGeometry>
        </mxCell>
        <mxCell id="f7NL1tnaBPzbx-Mfci6v-66" value="4" style="ellipse;whiteSpace=wrap;html=1;aspect=fixed;" vertex="1" parent="1">
          <mxGeometry x="230" y="860" width="40" height="40" as="geometry" />
        </mxCell>
        <mxCell id="f7NL1tnaBPzbx-Mfci6v-67" style="edgeStyle=orthogonalEdgeStyle;rounded=0;orthogonalLoop=1;jettySize=auto;html=1;exitX=1;exitY=0.5;exitDx=0;exitDy=0;" edge="1" parent="1" source="f7NL1tnaBPzbx-Mfci6v-73" target="f7NL1tnaBPzbx-Mfci6v-75">
          <mxGeometry relative="1" as="geometry" />
        </mxCell>
        <mxCell id="f7NL1tnaBPzbx-Mfci6v-68" value="10" style="edgeLabel;html=1;align=center;verticalAlign=middle;resizable=0;points=[];" vertex="1" connectable="0" parent="f7NL1tnaBPzbx-Mfci6v-67">
          <mxGeometry x="-0.325" y="2" relative="1" as="geometry">
            <mxPoint as="offset" />
          </mxGeometry>
        </mxCell>
        <mxCell id="f7NL1tnaBPzbx-Mfci6v-69" style="rounded=0;orthogonalLoop=1;jettySize=auto;html=1;exitX=1;exitY=0;exitDx=0;exitDy=0;" edge="1" parent="1" source="f7NL1tnaBPzbx-Mfci6v-73" target="f7NL1tnaBPzbx-Mfci6v-79">
          <mxGeometry relative="1" as="geometry" />
        </mxCell>
        <mxCell id="f7NL1tnaBPzbx-Mfci6v-70" value="15" style="edgeLabel;html=1;align=center;verticalAlign=middle;resizable=0;points=[];" vertex="1" connectable="0" parent="f7NL1tnaBPzbx-Mfci6v-69">
          <mxGeometry x="0.3287" y="1" relative="1" as="geometry">
            <mxPoint as="offset" />
          </mxGeometry>
        </mxCell>
        <mxCell id="f7NL1tnaBPzbx-Mfci6v-73" value="3" style="ellipse;whiteSpace=wrap;html=1;aspect=fixed;" vertex="1" parent="1">
          <mxGeometry x="230" y="780" width="40" height="40" as="geometry" />
        </mxCell>
        <mxCell id="f7NL1tnaBPzbx-Mfci6v-75" value="7" style="ellipse;whiteSpace=wrap;html=1;aspect=fixed;fillColor=#dae8fc;strokeColor=#6c8ebf;" vertex="1" parent="1">
          <mxGeometry x="440" y="780" width="40" height="40" as="geometry" />
        </mxCell>
        <mxCell id="f7NL1tnaBPzbx-Mfci6v-76" style="rounded=0;orthogonalLoop=1;jettySize=auto;html=1;" edge="1" parent="1" source="f7NL1tnaBPzbx-Mfci6v-79" target="f7NL1tnaBPzbx-Mfci6v-75">
          <mxGeometry relative="1" as="geometry" />
        </mxCell>
        <mxCell id="f7NL1tnaBPzbx-Mfci6v-77" value="15" style="edgeLabel;html=1;align=center;verticalAlign=middle;resizable=0;points=[];" vertex="1" connectable="0" parent="f7NL1tnaBPzbx-Mfci6v-76">
          <mxGeometry x="-0.1919" relative="1" as="geometry">
            <mxPoint y="-1" as="offset" />
          </mxGeometry>
        </mxCell>
        <mxCell id="f7NL1tnaBPzbx-Mfci6v-79" value="5" style="ellipse;whiteSpace=wrap;html=1;aspect=fixed;" vertex="1" parent="1">
          <mxGeometry x="310" y="700" width="40" height="40" as="geometry" />
        </mxCell>
        <mxCell id="f7NL1tnaBPzbx-Mfci6v-80" value="5" style="rounded=0;orthogonalLoop=1;jettySize=auto;html=1;exitX=0;exitY=0;exitDx=0;exitDy=0;" edge="1" parent="1" source="f7NL1tnaBPzbx-Mfci6v-83" target="f7NL1tnaBPzbx-Mfci6v-73">
          <mxGeometry relative="1" as="geometry" />
        </mxCell>
        <mxCell id="f7NL1tnaBPzbx-Mfci6v-81" style="rounded=0;orthogonalLoop=1;jettySize=auto;html=1;" edge="1" parent="1" source="f7NL1tnaBPzbx-Mfci6v-83" target="f7NL1tnaBPzbx-Mfci6v-75">
          <mxGeometry relative="1" as="geometry" />
        </mxCell>
        <mxCell id="f7NL1tnaBPzbx-Mfci6v-82" value="25" style="edgeLabel;html=1;align=center;verticalAlign=middle;resizable=0;points=[];" vertex="1" connectable="0" parent="f7NL1tnaBPzbx-Mfci6v-81">
          <mxGeometry x="0.1093" y="-1" relative="1" as="geometry">
            <mxPoint x="1" as="offset" />
          </mxGeometry>
        </mxCell>
        <mxCell id="f7NL1tnaBPzbx-Mfci6v-83" value="6" style="ellipse;whiteSpace=wrap;html=1;aspect=fixed;" vertex="1" parent="1">
          <mxGeometry x="310" y="860" width="40" height="40" as="geometry" />
        </mxCell>
      </root>
    </mxGraphModel>
  </diagram>
</mxfile>
